<?xml version="1.0" encoding="UTF-8" standalone="no"?>
<!-- Created with Inkscape (http://www.inkscape.org/) -->

<svg
   xmlns:dc="http://purl.org/dc/elements/1.1/"
   xmlns:cc="http://creativecommons.org/ns#"
   xmlns:rdf="http://www.w3.org/1999/02/22-rdf-syntax-ns#"
   xmlns:svg="http://www.w3.org/2000/svg"
   xmlns="http://www.w3.org/2000/svg"
   xmlns:sodipodi="http://sodipodi.sourceforge.net/DTD/sodipodi-0.dtd"
   xmlns:inkscape="http://www.inkscape.org/namespaces/inkscape"
   id="svg2"
   version="1.1"
   inkscape:version="0.48.5 r10040"
   width="1022.7525"
   height="269.22125"
   xml:space="preserve"
   sodipodi:docname="Objeto Inteligente de Vetor.ai"><metadata
     id="metadata8"><rdf:RDF><cc:Work
         rdf:about=""><dc:format>image/svg+xml</dc:format><dc:type
           rdf:resource="http://purl.org/dc/dcmitype/StillImage" /><dc:title></dc:title></cc:Work></rdf:RDF></metadata><defs
     id="defs6"><clipPath
       clipPathUnits="userSpaceOnUse"
       id="clipPath16"><path
         d="m 0,215.377 818.202,0 L 818.202,0 0,0 0,215.377 z"
         id="path18" /></clipPath><linearGradient
       x1="0"
       y1="0"
       x2="1"
       y2="0"
       gradientUnits="userSpaceOnUse"
       gradientTransform="matrix(383.0835,0,0,-383.0835,0,37.089783)"
       spreadMethod="pad"
       id="linearGradient76"><stop
         style="stop-opacity:1;stop-color:#df2c51"
         offset="0"
         id="stop78" /><stop
         style="stop-opacity:1;stop-color:#fedb2d"
         offset="0.730769"
         id="stop80" /><stop
         style="stop-opacity:1;stop-color:#fedb2d"
         offset="0.730769"
         id="stop82" /><stop
         style="stop-opacity:1;stop-color:#fedb2d"
         offset="1"
         id="stop84" /></linearGradient><clipPath
       clipPathUnits="userSpaceOnUse"
       id="clipPath92"><path
         d="m 0,215.377 818.202,0 L 818.202,0 0,0 0,215.377 z"
         id="path94" /></clipPath></defs><sodipodi:namedview
     pagecolor="#ffffff"
     bordercolor="#666666"
     borderopacity="1"
     objecttolerance="10"
     gridtolerance="10"
     guidetolerance="10"
     inkscape:pageopacity="0"
     inkscape:pageshadow="2"
     inkscape:window-width="1920"
     inkscape:window-height="1017"
     id="namedview4"
     showgrid="false"
     inkscape:zoom="0.78024742"
     inkscape:cx="551.91533"
     inkscape:cy="136.55643"
     inkscape:window-x="-8"
     inkscape:window-y="-8"
     inkscape:window-maximized="1"
     inkscape:current-layer="g10" /><g
     id="g10"
     inkscape:groupmode="layer"
     inkscape:label="Objeto Inteligente de Vetor"
     transform="matrix(1.25,0,0,-1.25,0,269.22125)"><g
       id="g12"><g
         id="g14"
         clip-path="url(#clipPath16)"><g
           id="g20"
           transform="translate(265.9356,106.0787)"><path
             d="m 0,0 c -3.525,2.78 -8.848,5.023 -15.822,6.666 l -15.661,3.692 c -5.922,1.384 -9.822,2.592 -11.604,3.598 -2.573,1.397 -3.823,3.446 -3.823,6.264 0,3.141 1.295,5.521 3.957,7.277 2.759,1.818 6.541,2.74 11.242,2.74 4.247,0 7.834,-0.717 10.656,-2.132 4.167,-2.108 6.343,-5.58 6.653,-10.611 l 0.058,-0.938 19.893,0 -0.036,1.034 c -0.337,9.759 -4.029,17.319 -10.974,22.471 -6.866,5.091 -15.262,7.672 -24.954,7.672 -11.6,0 -20.546,-2.754 -26.591,-8.185 -6.075,-5.461 -9.156,-12.411 -9.156,-20.66 0,-9.066 3.181,-15.84 9.45,-20.133 3.694,-2.561 10.21,-4.849 19.924,-6.994 l 9.665,-2.119 c 5.522,-1.184 9.586,-2.549 12.071,-4.051 2.31,-1.433 3.432,-3.392 3.432,-5.989 0,-4.615 -2.388,-7.693 -7.299,-9.408 -2.684,-0.927 -6.255,-1.398 -10.614,-1.398 -7.155,0 -12.242,1.733 -15.118,5.15 -1.56,1.865 -2.629,4.772 -3.176,8.64 l -0.121,0.86 -19.667,0 0,-1 c 0,-9.561 3.525,-17.188 10.476,-22.669 6.881,-5.424 16.415,-8.175 28.337,-8.175 11.693,0 20.897,2.799 27.357,8.322 6.506,5.56 9.804,12.649 9.804,21.069 C 8.359,-10.773 5.547,-4.378 0,0"
             style="fill:#ff0606;fill-opacity:1;fill-rule:nonzero;stroke:none"
             id="path22" /></g><g
           id="g24"
           transform="translate(325.4444,91.067)"><path
             d="m 0,0 c 0,-4.078 -0.54,-7.387 -1.597,-9.816 -2.009,-4.413 -5.653,-6.557 -11.137,-6.557 -4.192,0 -6.911,1.455 -8.309,4.447 -0.817,1.754 -1.232,4.463 -1.232,8.052 l 0,40.772 -19.676,0 0,-40.772 c 0,-7.667 0.989,-13.578 2.936,-17.565 3.545,-7.365 10.469,-11.099 20.579,-11.099 3.478,0 6.565,0.468 9.177,1.389 2.625,0.925 5.368,2.662 8.14,5.15 0.677,0.586 1.295,1.246 1.846,1.971 l 0,-7.058 18.766,0 0,67.984 L 0,36.898 0,0 z"
             style="fill:#ff0606;fill-opacity:1;fill-rule:nonzero;stroke:none"
             id="path26" /></g><g
           id="g28"
           transform="translate(405.4718,93.9723)"><path
             d="m 0,0 c 0,-5.939 -1.227,-10.737 -3.648,-14.264 -2.373,-3.457 -5.734,-5.136 -10.278,-5.136 -3.108,0 -5.83,0.85 -8.084,2.522 -3.831,2.894 -5.773,8.064 -5.773,15.365 0,4.699 0.594,8.61 1.763,11.617 2.219,5.563 6.176,8.268 12.098,8.268 4.925,0 8.375,-1.762 10.547,-5.386 C -1.136,9.245 0,4.876 0,0 m -8.984,35.445 c -5.519,0 -10.355,-1.555 -14.386,-4.633 -1.508,-1.181 -2.966,-2.669 -4.353,-4.443 l 0,7.623 -18.527,0 0,-93.953 19.072,0 0,32.275 c 1.31,-1.661 2.65,-3.016 4.005,-4.047 3.653,-2.744 8.283,-4.134 13.76,-4.134 8.552,0 15.643,3.192 21.076,9.487 5.397,6.251 8.134,15.411 8.134,27.228 0,11.23 -2.808,19.894 -8.346,25.75 -5.555,5.871 -12.43,8.847 -20.435,8.847"
             style="fill:#ff0606;fill-opacity:1;fill-rule:nonzero;stroke:none"
             id="path30" /></g><g
           id="g32"
           transform="translate(450.212,101.5104)"><path
             d="m 0,0 c 0.685,3.533 2.071,6.395 4.131,8.518 2.229,2.3 5.453,3.466 9.58,3.466 3.806,0 7.028,-1.115 9.578,-3.315 C 25.602,6.675 26.997,3.762 27.442,0 L 0,0 z m 41.453,14.917 c -3.093,4.582 -7.07,7.984 -11.823,10.113 -4.711,2.11 -10.069,3.18 -15.926,3.18 -9.9,0 -18.078,-3.178 -24.305,-9.444 -6.225,-6.266 -9.381,-15.35 -9.381,-26.999 0,-12.459 3.513,-21.61 10.442,-27.196 6.863,-5.534 14.894,-8.34 23.87,-8.34 10.88,0 19.48,3.347 25.552,9.939 3.931,4.178 6.173,8.382 6.66,12.495 l 0.132,1.117 -19.341,0 -0.282,-0.532 c -0.958,-1.809 -2.068,-3.232 -3.301,-4.236 -2.261,-1.857 -5.271,-2.798 -8.945,-2.798 -3.499,0 -6.521,0.783 -8.989,2.332 -3.839,2.362 -5.927,6.316 -6.364,12.071 l 47.983,0 0.015,0.985 c 0.085,5.73 -0.11,10.192 -0.581,13.264 -0.821,5.297 -2.644,10.027 -5.416,14.049"
             style="fill:#ff0606;fill-opacity:1;fill-rule:nonzero;stroke:none"
             id="path34" /></g><g
           id="g36"
           transform="translate(543.5753,129.4166)"><path
             d="m 0,0 c -0.749,0.038 -1.23,0.068 -1.442,0.087 -0.248,0.022 -0.551,0.035 -0.91,0.035 -5.381,0 -9.834,-1.443 -13.222,-4.282 -1.601,-1.306 -3.358,-3.396 -5.33,-6.35 l 0,9.058 -18.466,0 0,-67.984 19.373,0 0,32.539 c 0,5.099 0.634,8.895 1.883,11.279 2.214,4.202 6.499,6.245 13.099,6.245 0.512,0 1.183,-0.02 2.01,-0.06 0.833,-0.04 1.79,-0.12 2.844,-0.237 l 1.11,-0.123 0,19.744 L 0,0 z"
             style="fill:#ff0606;fill-opacity:1;fill-rule:nonzero;stroke:none"
             id="path38" /></g><g
           id="g40"
           transform="translate(547.5659,150.2438)"><path
             d="m 0,0 64.963,0 0,-7.19 -28.267,0 0,-82.072 -8.429,0 0,82.072 L 0,-7.19 0,0 z"
             style="fill:#000000;fill-opacity:1;fill-rule:nonzero;stroke:none"
             id="path42" /></g><g
           id="g44"
           transform="translate(623.4381,60.9813)"><path
             d="m 0,0 0,89.262 7.438,0 0,-33.969 c 2.976,3.14 6.054,5.703 9.237,7.687 3.18,1.983 7.004,2.975 11.467,2.975 3.967,0 7.644,-0.682 11.034,-2.046 3.389,-1.364 6.239,-3.741 8.554,-7.128 1.57,-2.314 2.499,-4.691 2.79,-7.129 0.288,-2.438 0.433,-4.98 0.433,-7.624 l 0,-42.028 -7.438,0 0,41.904 c 0,5.784 -1.282,10.123 -3.843,13.018 -2.563,2.891 -6.818,4.339 -12.769,4.339 -2.315,0 -4.423,-0.353 -6.324,-1.054 -1.901,-0.704 -3.616,-1.633 -5.145,-2.79 C 13.904,54.259 12.602,52.938 11.53,51.45 10.454,49.962 9.627,48.391 9.05,46.739 8.306,44.672 7.851,42.688 7.686,40.788 7.519,38.886 7.438,36.821 7.438,34.589 L 7.438,0 0,0 z"
             style="fill:#000000;fill-opacity:1;fill-rule:nonzero;stroke:none"
             id="path46" /></g><g
           id="g48"
           transform="translate(700.1796,60.9813)"><path
             d="m 0,0 -7.439,0 0,64.219 7.439,0 0,-12.025 0.248,0 c 2.064,5.123 4.731,8.698 7.996,10.724 3.264,2.024 7.582,3.037 12.956,3.037 l 0,-8.058 C 16.985,57.978 13.514,57.317 10.786,55.913 8.058,54.507 5.889,52.607 4.277,50.21 2.665,47.813 1.549,44.982 0.929,41.718 0.31,38.451 0,35.042 0,31.49 L 0,0 z"
             style="fill:#000000;fill-opacity:1;fill-rule:nonzero;stroke:none"
             id="path50" /></g><g
           id="g52"
           transform="translate(743.7462,144.8018)"><path
             d="m 0,0 c 0,-3.01 -2.44,-5.45 -5.45,-5.45 -3.01,0 -5.45,2.44 -5.45,5.45 0,3.01 2.44,5.45 5.45,5.45 C -2.44,5.45 0,3.01 0,0 m -8.978,-19.601 7.438,0 0,-64.219 -7.438,0 0,64.219 z"
             style="fill:#000000;fill-opacity:1;fill-rule:nonzero;stroke:none"
             id="path54" /></g><g
           id="g56"
           transform="translate(754.7263,119.0017)"><path
             d="m 0,0 0,6.199 9.546,0 0,10.166 c 0,5.123 1.033,9.174 3.1,12.149 2.064,2.976 5.578,4.464 10.538,4.464 1.155,0 2.23,-0.043 3.223,-0.124 0.991,-0.083 1.983,-0.207 2.976,-0.373 l 0,-6.818 c -1.655,0.412 -3.142,0.619 -4.464,0.619 -1.903,0 -3.39,-0.352 -4.463,-1.053 -1.075,-0.703 -1.859,-1.632 -2.356,-2.789 -0.496,-1.159 -0.806,-2.461 -0.93,-3.906 -0.124,-1.446 -0.185,-2.913 -0.185,-4.4 l 0,-7.935 12.398,0 0,-6.199 -12.398,0 0,-58.02 -7.439,0 L 9.546,0 0,0 z"
             style="fill:#000000;fill-opacity:1;fill-rule:nonzero;stroke:none"
             id="path58" /></g><g
           id="g60"
           transform="translate(818.202,60.7334)"><path
             d="m 0,0 c -0.91,-0.165 -2.107,-0.454 -3.596,-0.868 -1.487,-0.412 -3.142,-0.62 -4.958,-0.62 -3.719,0 -6.552,0.93 -8.493,2.79 -1.942,1.859 -2.913,5.185 -2.913,9.98 l 0,46.986 -9.05,0 0,6.199 9.05,0 0,17.853 7.438,0 0,-17.853 12.026,0 0,-6.199 -12.026,0 0,-44.011 c 0,-1.571 0.04,-2.934 0.124,-4.091 0.082,-1.158 0.329,-2.108 0.744,-2.851 0.413,-0.745 1.053,-1.283 1.922,-1.612 0.868,-0.331 2.085,-0.495 3.656,-0.495 0.993,0 2.004,0.081 3.038,0.247 C -2.005,5.619 -0.991,5.827 0,6.074 L 0,0 z"
             style="fill:#000000;fill-opacity:1;fill-rule:nonzero;stroke:none"
             id="path62" /></g></g></g><g
       id="g64"><g
         id="g66"><g
           id="g72"><g
             id="g74"><path
               d="m 0,39.68 c 42.235,7.733 155.256,6.545 191.542,3.569 l 0,0 c 36.286,-2.973 95.771,-11.302 138.006,-25.576 l 0,0 53.535,10.707 C 324.192,45.033 268.39,52.673 218.906,55.148 l 0,0 c -16.262,0.812 -33.808,1.359 -52.418,1.358 l 0,0 C 117.025,56.506 60.081,52.647 0,39.68"
               style="fill:url(#linearGradient76);stroke:none"
               id="path86" /></g></g></g></g><g
       id="g88"><g
         id="g90"
         clip-path="url(#clipPath92)"><g
           id="g96"
           transform="translate(150.6716,142.7962)"><path
             d="M 0,0 C 8.809,2.904 16.955,12.73 18.194,21.948 19.432,31.165 13.296,36.284 4.487,33.38 -4.322,30.477 -12.468,20.65 -13.707,11.432 -14.946,2.215 -8.81,-2.904 0,0 m -83.742,-8.363 82.389,4.612 82.389,28.384 -70.707,-48.513 46.766,-85.882 -60.893,53.288 -79.718,-86.322 64.333,109.803 -64.559,24.63 z"
             style="fill:#13389a;fill-opacity:1;fill-rule:nonzero;stroke:none"
             id="path98" /></g><g
           id="g100"
           transform="translate(76.3535,32.4127)"><path
             d="M 0,0 0.855,0 C 1.264,0 1.543,0.061 1.691,0.183 1.84,0.305 1.914,0.467 1.914,0.667 1.914,0.796 1.879,0.912 1.807,1.014 1.735,1.116 1.635,1.193 1.508,1.242 1.381,1.292 1.145,1.318 0.801,1.318 L 0,1.318 0,0 z m -0.704,-2.457 0,4.366 1.5,0 C 1.309,1.909 1.68,1.869 1.909,1.788 2.138,1.707 2.321,1.566 2.458,1.366 2.594,1.166 2.662,0.952 2.662,0.726 2.662,0.407 2.548,0.129 2.32,-0.107 2.092,-0.344 1.791,-0.477 1.414,-0.505 1.568,-0.57 1.692,-0.647 1.785,-0.737 1.961,-0.909 2.176,-1.198 2.431,-1.602 l 0.532,-0.855 -0.86,0 -0.388,0.688 c -0.304,0.542 -0.55,0.88 -0.736,1.016 -0.129,0.101 -0.318,0.151 -0.565,0.151 l -0.414,0 0,-1.855 -0.704,0 z m 1.78,5.63 c -0.57,0 -1.125,-0.147 -1.665,-0.438 -0.54,-0.292 -0.962,-0.71 -1.266,-1.254 -0.305,-0.543 -0.457,-1.109 -0.457,-1.696 0,-0.585 0.15,-1.144 0.449,-1.681 0.299,-0.536 0.718,-0.953 1.255,-1.252 0.538,-0.3 1.099,-0.449 1.684,-0.449 0.584,0 1.145,0.149 1.683,0.449 0.537,0.299 0.955,0.716 1.253,1.252 0.297,0.537 0.446,1.096 0.446,1.681 0,0.587 -0.151,1.153 -0.454,1.696 C 3.7,2.025 3.278,2.443 2.737,2.735 2.196,3.026 1.642,3.173 1.076,3.173 m 0,0.672 C 1.756,3.845 2.422,3.67 3.071,3.321 3.719,2.971 4.225,2.471 4.587,1.82 4.949,1.17 5.13,0.491 5.13,-0.215 5.13,-0.914 4.952,-1.586 4.595,-2.232 4.238,-2.877 3.738,-3.378 3.095,-3.734 2.451,-4.091 1.778,-4.27 1.076,-4.27 c -0.703,0 -1.376,0.179 -2.02,0.536 -0.643,0.356 -1.145,0.857 -1.503,1.502 -0.358,0.646 -0.537,1.318 -0.537,2.017 0,0.706 0.182,1.385 0.545,2.035 0.364,0.651 0.871,1.151 1.519,1.501 0.649,0.349 1.315,0.524 1.996,0.524"
             style="fill:#13389a;fill-opacity:1;fill-rule:nonzero;stroke:none"
             id="path102" /></g><g
           id="g104"
           transform="translate(304.7386,213.9227)"><path
             d="m 0,0 0,-6.364 -18.002,0 0,-47.06 -7.31,0 0,47.06 -18.002,0 0,6.364 L 0,0 z"
             style="fill:#000000;fill-opacity:1;fill-rule:nonzero;stroke:none"
             id="path106" /></g><g
           id="g108"
           transform="translate(328.6685,183.083)"><path
             d="m 0,0 c -0.265,2.837 -0.878,5.103 -1.839,6.801 -1.78,3.151 -4.749,4.728 -8.908,4.728 -2.98,0 -5.481,-1.086 -7.5,-3.255 -2.02,-2.171 -3.09,-4.928 -3.21,-8.274 L 0,0 z M -2.344,15.293 C 0.234,13.995 2.198,12.316 3.547,10.256 4.849,8.292 5.716,6.001 6.149,3.382 6.535,1.588 6.728,-1.273 6.728,-5.201 l -28.33,0 c 0.12,-3.962 1.047,-7.142 2.779,-9.536 1.732,-2.395 4.414,-3.592 8.046,-3.592 3.392,0 6.098,1.132 8.119,3.397 1.131,1.315 1.932,2.837 2.403,4.567 l 6.438,0 c -0.171,-1.43 -0.734,-3.025 -1.692,-4.782 -0.957,-1.758 -2.026,-3.195 -3.205,-4.31 -1.973,-1.94 -4.416,-3.248 -7.326,-3.927 -1.565,-0.387 -3.333,-0.582 -5.306,-0.582 -4.819,0 -8.903,1.764 -12.252,5.291 -3.349,3.528 -5.023,8.467 -5.023,14.82 0,6.255 1.686,11.334 5.06,15.238 3.373,3.903 7.783,5.855 13.229,5.855 2.747,0 5.409,-0.648 7.988,-1.945"
             style="fill:#000000;fill-opacity:1;fill-rule:nonzero;stroke:none"
             id="path110" /></g><g
           id="g112"
           transform="translate(370.0911,183.083)"><path
             d="m 0,0 c -0.265,2.837 -0.878,5.103 -1.839,6.801 -1.779,3.151 -4.749,4.728 -8.908,4.728 -2.98,0 -5.481,-1.086 -7.5,-3.255 -2.02,-2.171 -3.09,-4.928 -3.21,-8.274 L 0,0 z M -2.344,15.293 C 0.234,13.995 2.198,12.316 3.547,10.256 4.849,8.292 5.716,6.001 6.149,3.382 6.534,1.588 6.728,-1.273 6.728,-5.201 l -28.33,0 c 0.12,-3.962 1.047,-7.142 2.779,-9.536 1.732,-2.395 4.414,-3.592 8.046,-3.592 3.392,0 6.098,1.132 8.119,3.397 1.131,1.315 1.932,2.837 2.403,4.567 l 6.437,0 c -0.17,-1.43 -0.733,-3.025 -1.691,-4.782 -0.957,-1.758 -2.026,-3.195 -3.205,-4.31 -1.973,-1.94 -4.416,-3.248 -7.326,-3.927 -1.565,-0.387 -3.333,-0.582 -5.306,-0.582 -4.819,0 -8.903,1.764 -12.252,5.291 -3.349,3.528 -5.023,8.467 -5.023,14.82 0,6.255 1.686,11.334 5.06,15.238 3.373,3.903 7.783,5.855 13.229,5.855 2.747,0 5.409,-0.648 7.988,-1.945"
             style="fill:#000000;fill-opacity:1;fill-rule:nonzero;stroke:none"
             id="path114" /></g><g
           id="g116"
           transform="translate(385.1109,199.4484)"><path
             d="m 0,0 6.219,0 0,-5.528 c 1.842,2.279 3.794,3.915 5.855,4.91 2.061,0.993 4.352,1.491 6.873,1.491 5.528,0 9.261,-1.928 11.202,-5.783 1.066,-2.109 1.6,-5.127 1.6,-9.055 l 0,-24.985 -6.655,0 0,24.548 c 0,2.376 -0.352,4.292 -1.055,5.746 -1.164,2.425 -3.273,3.637 -6.328,3.637 -1.552,0 -2.825,-0.157 -3.819,-0.473 -1.794,-0.533 -3.37,-1.6 -4.727,-3.2 -1.091,-1.285 -1.8,-2.612 -2.128,-3.982 -0.327,-1.37 -0.491,-3.328 -0.491,-5.873 l 0,-20.403 L 0,-38.95 0,0 z"
             style="fill:#000000;fill-opacity:1;fill-rule:nonzero;stroke:none"
             id="path118" /></g><g
           id="g120"
           transform="translate(485.8854,210.0314)"><path
             d="m 0,0 c 3.69,-3.564 5.738,-7.613 6.146,-12.147 l -7.055,0 c -0.786,3.443 -2.351,6.17 -4.697,8.183 -2.345,2.012 -5.637,3.018 -9.875,3.018 -5.167,0 -9.34,-1.85 -12.518,-5.55 -3.18,-3.701 -4.768,-9.373 -4.768,-17.016 0,-6.261 1.435,-11.338 4.304,-15.233 2.871,-3.895 7.152,-5.842 12.843,-5.842 5.241,0 9.23,2.049 11.969,6.147 1.452,2.157 2.537,4.994 3.251,8.51 l 7.055,0 c -0.623,-5.626 -2.684,-10.341 -6.182,-14.147 -4.195,-4.583 -9.851,-6.874 -16.97,-6.874 -6.134,0 -11.288,1.88 -15.457,5.64 -5.488,4.974 -8.232,12.652 -8.232,23.037 0,7.884 2.06,14.349 6.182,19.396 4.457,5.482 10.604,8.224 18.44,8.224 C -8.879,5.346 -3.691,3.564 0,0"
             style="fill:#000000;fill-opacity:1;fill-rule:nonzero;stroke:none"
             id="path122" /></g><g
           id="g124"
           transform="translate(501.0143,214.1045)"><path
             d="m 0,0 6.546,0 0,-19.929 c 1.551,1.964 2.946,3.345 4.183,4.146 2.109,1.381 4.739,2.073 7.891,2.073 5.649,0 9.479,-1.977 11.492,-5.928 1.091,-2.158 1.637,-5.153 1.637,-8.983 l 0,-24.985 -6.728,0 0,24.548 c 0,2.861 -0.364,4.958 -1.091,6.292 -1.189,2.133 -3.419,3.2 -6.692,3.2 -2.716,0 -5.177,-0.934 -7.382,-2.8 -2.207,-1.867 -3.31,-5.395 -3.31,-10.583 l 0,-20.657 -6.546,0 L 0,0 z"
             style="fill:#000000;fill-opacity:1;fill-rule:nonzero;stroke:none"
             id="path126" /></g><g
           id="g128"
           transform="translate(549.5287,166.3864)"><path
             d="m 0,0 c 1.382,-1.089 3.018,-1.633 4.91,-1.633 2.302,0 4.533,0.533 6.691,1.598 3.637,1.767 5.455,4.659 5.455,8.678 l 0,5.265 C 16.258,13.397 15.229,12.971 13.972,12.631 12.713,12.29 11.479,12.047 10.269,11.903 L 6.314,11.393 C 3.942,11.079 2.159,10.583 0.964,9.906 -1.061,8.768 -2.073,6.954 -2.073,4.463 -2.073,2.576 -1.382,1.088 0,0 m 13.783,17.684 c 1.504,0.193 2.51,0.823 3.019,1.888 0.291,0.584 0.436,1.423 0.436,2.519 0,2.239 -0.792,3.864 -2.377,4.874 -1.586,1.01 -3.853,1.515 -6.806,1.515 -3.41,0 -5.831,-0.926 -7.259,-2.778 -0.797,-1.024 -1.318,-2.547 -1.56,-4.569 l -6.109,0 c 0.12,4.815 1.676,8.164 4.667,10.048 2.99,1.884 6.46,2.827 10.407,2.827 4.577,0 8.294,-0.873 11.152,-2.619 2.832,-1.746 4.249,-4.461 4.249,-8.147 l 0,-22.44 c 0,-0.679 0.14,-1.224 0.419,-1.636 0.278,-0.411 0.866,-0.617 1.764,-0.617 0.291,0 0.618,0.018 0.981,0.055 0.364,0.036 0.751,0.09 1.164,0.163 l 0,-4.837 c -1.018,-0.29 -1.795,-0.472 -2.327,-0.545 -0.534,-0.073 -1.262,-0.109 -2.182,-0.109 -2.255,0 -3.892,0.8 -4.91,2.399 -0.534,0.849 -0.909,2.049 -1.127,3.6 -1.334,-1.745 -3.25,-3.26 -5.746,-4.544 -2.498,-1.285 -5.25,-1.928 -8.256,-1.928 -3.613,0 -6.564,1.096 -8.855,3.287 -2.292,2.192 -3.437,4.934 -3.437,8.227 0,3.608 1.127,6.405 3.382,8.391 2.255,1.985 5.212,3.209 8.874,3.668 l 10.437,1.308 z"
             style="fill:#000000;fill-opacity:1;fill-rule:nonzero;stroke:none"
             id="path130" /></g><path
           d="m 584.042,213.923 6.546,0 0,-53.424 -6.546,0 0,53.424 z"
           style="fill:#000000;fill-opacity:1;fill-rule:nonzero;stroke:none"
           id="path132" /><path
           d="m 600.589,213.923 6.546,0 0,-53.424 -6.546,0 0,53.424 z"
           style="fill:#000000;fill-opacity:1;fill-rule:nonzero;stroke:none"
           id="path134" /><g
           id="g136"
           transform="translate(643.357,183.083)"><path
             d="m 0,0 c -0.265,2.837 -0.878,5.103 -1.839,6.801 -1.78,3.151 -4.749,4.728 -8.908,4.728 -2.981,0 -5.481,-1.086 -7.5,-3.255 -2.02,-2.171 -3.09,-4.928 -3.21,-8.274 L 0,0 z M -2.345,15.293 C 0.234,13.995 2.198,12.316 3.547,10.256 4.849,8.292 5.715,6.001 6.15,3.382 6.534,1.588 6.728,-1.273 6.728,-5.201 l -28.33,0 c 0.12,-3.962 1.046,-7.142 2.778,-9.536 1.733,-2.395 4.415,-3.592 8.046,-3.592 3.393,0 6.099,1.132 8.119,3.397 1.131,1.315 1.933,2.837 2.404,4.567 l 6.437,0 c -0.17,-1.43 -0.733,-3.025 -1.691,-4.782 -0.958,-1.758 -2.026,-3.195 -3.205,-4.31 -1.973,-1.94 -4.415,-3.248 -7.327,-3.927 -1.564,-0.387 -3.333,-0.582 -5.306,-0.582 -4.818,0 -8.902,1.764 -12.25,5.291 -3.35,3.528 -5.024,8.467 -5.024,14.82 0,6.255 1.686,11.334 5.06,15.238 3.373,3.903 7.783,5.855 13.229,5.855 2.747,0 5.409,-0.648 7.987,-1.945"
             style="fill:#000000;fill-opacity:1;fill-rule:nonzero;stroke:none"
             id="path138" /></g><g
           id="g140"
           transform="translate(658.3768,199.4484)"><path
             d="m 0,0 6.219,0 0,-5.528 c 1.842,2.279 3.794,3.915 5.855,4.91 2.06,0.993 4.351,1.491 6.874,1.491 5.527,0 9.26,-1.928 11.201,-5.783 1.066,-2.109 1.6,-5.127 1.6,-9.055 l 0,-24.985 -6.655,0 0,24.548 c 0,2.376 -0.352,4.292 -1.055,5.746 -1.164,2.425 -3.273,3.637 -6.328,3.637 -1.552,0 -2.825,-0.157 -3.819,-0.473 -1.795,-0.533 -3.37,-1.6 -4.727,-3.2 -1.091,-1.285 -1.801,-2.612 -2.128,-3.982 -0.327,-1.37 -0.491,-3.328 -0.491,-5.873 l 0,-20.403 L 0,-38.95 0,0 z"
             style="fill:#000000;fill-opacity:1;fill-rule:nonzero;stroke:none"
             id="path142" /></g><g
           id="g144"
           transform="translate(722.2538,190.8657)"><path
             d="m 0,0 c -1.978,2.327 -4.499,3.491 -7.562,3.491 -4.584,0 -7.719,-2.158 -9.407,-6.473 -0.894,-2.304 -1.34,-5.322 -1.34,-9.056 0,-4.389 0.886,-7.728 2.661,-10.019 1.771,-2.291 4.153,-3.437 7.146,-3.437 4.678,0 7.971,2.121 9.876,6.365 1.061,2.4 1.592,5.2 1.592,8.4 C 2.966,-5.904 1.977,-2.328 0,0 M -0.801,7.019 C 0.43,6.17 1.686,4.934 2.966,3.309 l 0,4.91 6.037,0 0,-35.422 c 0,-4.946 -0.724,-8.849 -2.174,-11.71 -2.707,-5.285 -7.817,-7.928 -15.331,-7.928 -4.181,0 -7.697,0.94 -10.548,2.818 -2.852,1.879 -4.447,4.819 -4.786,8.819 l 6.655,0 c 0.313,-1.746 0.94,-3.091 1.881,-4.037 1.47,-1.454 3.786,-2.182 6.944,-2.182 4.992,0 8.259,1.771 9.802,5.31 0.917,2.086 1.339,5.806 1.266,11.165 -1.304,-1.989 -2.873,-3.467 -4.71,-4.437 -1.835,-0.97 -4.262,-1.455 -7.281,-1.455 -4.202,0 -7.879,1.497 -11.03,4.492 -3.152,2.993 -4.727,7.946 -4.727,14.856 0,6.521 1.587,11.613 4.764,15.274 3.175,3.661 7.009,5.492 11.501,5.492 3.043,0 5.699,-0.752 7.97,-2.255"
             style="fill:#000000;fill-opacity:1;fill-rule:nonzero;stroke:none"
             id="path146" /></g><g
           id="g148"
           transform="translate(767.6249,183.083)"><path
             d="m 0,0 c -0.265,2.837 -0.878,5.103 -1.839,6.801 -1.78,3.151 -4.749,4.728 -8.908,4.728 -2.98,0 -5.481,-1.086 -7.5,-3.255 -2.02,-2.171 -3.09,-4.928 -3.21,-8.274 L 0,0 z M -2.344,15.293 C 0.234,13.995 2.198,12.316 3.547,10.256 4.849,8.292 5.715,6.001 6.15,3.382 6.534,1.588 6.728,-1.273 6.728,-5.201 l -28.33,0 c 0.12,-3.962 1.047,-7.142 2.778,-9.536 1.733,-2.395 4.415,-3.592 8.046,-3.592 3.393,0 6.1,1.132 8.119,3.397 1.132,1.315 1.933,2.837 2.404,4.567 l 6.437,0 c -0.17,-1.43 -0.733,-3.025 -1.691,-4.782 -0.958,-1.758 -2.026,-3.195 -3.205,-4.31 -1.973,-1.94 -4.415,-3.248 -7.327,-3.927 -1.564,-0.387 -3.333,-0.582 -5.306,-0.582 -4.818,0 -8.902,1.764 -12.25,5.291 -3.35,3.528 -5.024,8.467 -5.024,14.82 0,6.255 1.686,11.334 5.06,15.238 3.373,3.903 7.783,5.855 13.229,5.855 2.747,0 5.409,-0.648 7.988,-1.945"
             style="fill:#000000;fill-opacity:1;fill-rule:nonzero;stroke:none"
             id="path150" /></g></g></g></g></svg>